<svg width="57" height="82" viewBox="0 0 57 82" fill="none" xmlns="http://www.w3.org/2000/svg">
<path d="M41.0004 2.5C48.0615 2.50026 53.7855 8.22494 53.7855 15.2861C53.7853 22.3471 48.0614 28.071 41.0004 28.0713H28.2142V2.5H41.0004Z" stroke="white" stroke-width="5"/>
<path d="M15.2852 2.5C8.22402 2.50026 2.5 8.22494 2.5 15.2861C2.50023 22.3471 8.22416 28.071 15.2852 28.0713H28.0713V2.5H15.2852Z" stroke="white" stroke-width="5"/>
<path d="M15.2852 28.2144C8.22402 28.2146 2.5 33.9393 2.5 41.0005C2.50023 48.0615 8.22416 53.7854 15.2852 53.7856H28.0713V28.2144H15.2852Z" stroke="white" stroke-width="5"/>
<path d="M41.0004 28.2144C48.0615 28.2146 53.7855 33.9393 53.7855 41.0005C53.7853 48.0615 48.0614 53.7854 41.0004 53.7856C33.9392 53.7856 28.2145 48.0616 28.2142 41.0005C28.2142 33.9392 33.939 28.2144 41.0004 28.2144Z" stroke="white" stroke-width="5"/>
<path d="M15.2852 53.9285C8.22402 53.9287 2.5 59.6534 2.5 66.7146C2.50022 73.7756 8.22415 79.4995 15.2852 79.4998C22.3464 79.4998 28.0711 73.7758 28.0713 66.7146V53.9285H15.2852Z" stroke="white" stroke-width="5"/>
</svg>
